<svg width="92" height="22" viewBox="0 0 92 22" fill="none" xmlns="http://www.w3.org/2000/svg">
<rect width="15" height="15" rx="4" fill="#B9B9B9"/>
<rect x="7" y="7" width="15" height="15" rx="4" fill="#143E95"/>
<path d="M33.676 15H32.488L30.532 7.8H30.508L28.528 15H27.34L25.144 6.432H26.308L27.988 13.56H28.012L29.932 6.432H31.168L33.064 13.56H33.088L34.828 6.432H35.968L33.676 15ZM36.9417 11.904C36.9417 12.28 36.9897 12.616 37.0857 12.912C37.1897 13.2 37.3297 13.444 37.5057 13.644C37.6817 13.836 37.8857 13.984 38.1177 14.088C38.3577 14.192 38.6097 14.244 38.8737 14.244C39.1377 14.244 39.3857 14.192 39.6177 14.088C39.8577 13.984 40.0657 13.836 40.2417 13.644C40.4177 13.444 40.5537 13.2 40.6497 12.912C40.7537 12.616 40.8057 12.28 40.8057 11.904C40.8057 11.528 40.7537 11.196 40.6497 10.908C40.5537 10.612 40.4177 10.364 40.2417 10.164C40.0657 9.964 39.8577 9.812 39.6177 9.708C39.3857 9.604 39.1377 9.552 38.8737 9.552C38.6097 9.552 38.3577 9.604 38.1177 9.708C37.8857 9.812 37.6817 9.964 37.5057 10.164C37.3297 10.364 37.1897 10.612 37.0857 10.908C36.9897 11.196 36.9417 11.528 36.9417 11.904ZM35.8617 11.904C35.8617 11.448 35.9257 11.024 36.0537 10.632C36.1817 10.232 36.3737 9.888 36.6297 9.6C36.8857 9.304 37.2017 9.072 37.5777 8.904C37.9537 8.736 38.3857 8.652 38.8737 8.652C39.3697 8.652 39.8017 8.736 40.1697 8.904C40.5457 9.072 40.8617 9.304 41.1177 9.6C41.3737 9.888 41.5657 10.232 41.6937 10.632C41.8217 11.024 41.8857 11.448 41.8857 11.904C41.8857 12.36 41.8217 12.784 41.6937 13.176C41.5657 13.568 41.3737 13.912 41.1177 14.208C40.8617 14.496 40.5457 14.724 40.1697 14.892C39.8017 15.052 39.3697 15.132 38.8737 15.132C38.3857 15.132 37.9537 15.052 37.5777 14.892C37.2017 14.724 36.8857 14.496 36.6297 14.208C36.3737 13.912 36.1817 13.568 36.0537 13.176C35.9257 12.784 35.8617 12.36 35.8617 11.904ZM43.0523 8.796H44.0123V10.104H44.0363C44.2843 9.6 44.5883 9.228 44.9483 8.988C45.3083 8.748 45.7643 8.636 46.3163 8.652V9.732C45.9083 9.732 45.5603 9.788 45.2723 9.9C44.9843 10.012 44.7523 10.176 44.5763 10.392C44.4003 10.608 44.2723 10.872 44.1923 11.184C44.1123 11.488 44.0723 11.84 44.0723 12.24V15H43.0523V8.796ZM47.1444 6.432H48.1644V15H47.1444V6.432ZM50.4886 11.952C50.4886 12.24 50.5246 12.524 50.5966 12.804C50.6766 13.076 50.7926 13.32 50.9446 13.536C51.1046 13.752 51.3046 13.924 51.5446 14.052C51.7926 14.18 52.0806 14.244 52.4086 14.244C52.7526 14.244 53.0446 14.176 53.2846 14.04C53.5246 13.904 53.7206 13.728 53.8726 13.512C54.0246 13.288 54.1326 13.036 54.1966 12.756C54.2686 12.476 54.3046 12.192 54.3046 11.904C54.3046 11.6 54.2686 11.308 54.1966 11.028C54.1246 10.74 54.0086 10.488 53.8486 10.272C53.6966 10.056 53.4966 9.884 53.2486 9.756C53.0006 9.62 52.7006 9.552 52.3486 9.552C52.0046 9.552 51.7126 9.62 51.4726 9.756C51.2326 9.892 51.0406 10.072 50.8966 10.296C50.7526 10.52 50.6486 10.776 50.5846 11.064C50.5206 11.352 50.4886 11.648 50.4886 11.952ZM55.2886 15H54.2686V14.16H54.2446C54.0766 14.504 53.8126 14.752 53.4526 14.904C53.0926 15.056 52.6966 15.132 52.2646 15.132C51.7846 15.132 51.3646 15.044 51.0046 14.868C50.6526 14.692 50.3566 14.456 50.1166 14.16C49.8846 13.864 49.7086 13.52 49.5886 13.128C49.4686 12.736 49.4086 12.32 49.4086 11.88C49.4086 11.44 49.4646 11.024 49.5766 10.632C49.6966 10.24 49.8726 9.9 50.1046 9.612C50.3446 9.316 50.6406 9.084 50.9926 8.916C51.3526 8.74 51.7686 8.652 52.2406 8.652C52.4006 8.652 52.5726 8.668 52.7566 8.7C52.9406 8.732 53.1246 8.788 53.3086 8.868C53.4926 8.94 53.6646 9.04 53.8246 9.168C53.9926 9.288 54.1326 9.44 54.2446 9.624H54.2686V6.432H55.2886V15ZM58.9698 7.392H56.1138V6.432H62.9658V7.392H60.1098V15H58.9698V7.392ZM62.6109 8.796H63.5709V10.104H63.5949C63.8429 9.6 64.1469 9.228 64.5069 8.988C64.8669 8.748 65.3229 8.636 65.8749 8.652V9.732C65.4669 9.732 65.1189 9.788 64.8309 9.9C64.5429 10.012 64.3109 10.176 64.1349 10.392C63.9589 10.608 63.8309 10.872 63.7509 11.184C63.6709 11.488 63.6309 11.84 63.6309 12.24V15H62.6109V8.796ZM70.7401 11.304C70.7241 11.064 70.6681 10.836 70.5721 10.62C70.4841 10.404 70.3601 10.22 70.2001 10.068C70.0481 9.908 69.8641 9.784 69.6481 9.696C69.4401 9.6 69.2081 9.552 68.9521 9.552C68.6881 9.552 68.4481 9.6 68.2321 9.696C68.0241 9.784 67.8441 9.908 67.6921 10.068C67.5401 10.228 67.4201 10.416 67.3321 10.632C67.2441 10.84 67.1921 11.064 67.1761 11.304H70.7401ZM71.7241 13.032C71.5881 13.728 71.2881 14.252 70.8241 14.604C70.3601 14.956 69.7761 15.132 69.0721 15.132C68.5761 15.132 68.1441 15.052 67.7761 14.892C67.4161 14.732 67.1121 14.508 66.8641 14.22C66.6161 13.932 66.4281 13.588 66.3001 13.188C66.1801 12.788 66.1121 12.352 66.0961 11.88C66.0961 11.408 66.1681 10.976 66.3121 10.584C66.4561 10.192 66.6561 9.852 66.9121 9.564C67.1761 9.276 67.4841 9.052 67.8361 8.892C68.1961 8.732 68.5881 8.652 69.0121 8.652C69.5641 8.652 70.0201 8.768 70.3801 9C70.7481 9.224 71.0401 9.512 71.2561 9.864C71.4801 10.216 71.6321 10.6 71.7121 11.016C71.8001 11.432 71.8361 11.828 71.8201 12.204H67.1761C67.1681 12.476 67.2001 12.736 67.2721 12.984C67.3441 13.224 67.4601 13.44 67.6201 13.632C67.7801 13.816 67.9841 13.964 68.2321 14.076C68.4801 14.188 68.7721 14.244 69.1081 14.244C69.5401 14.244 69.8921 14.144 70.1641 13.944C70.4441 13.744 70.6281 13.44 70.7161 13.032H71.7241ZM72.8774 8.796H73.8374V9.78H73.8614C74.2854 9.028 74.9574 8.652 75.8774 8.652C76.2854 8.652 76.6254 8.708 76.8974 8.82C77.1694 8.932 77.3894 9.088 77.5574 9.288C77.7254 9.488 77.8414 9.728 77.9054 10.008C77.9774 10.28 78.0134 10.584 78.0134 10.92V15H76.9934V10.8C76.9934 10.416 76.8814 10.112 76.6574 9.888C76.4334 9.664 76.1254 9.552 75.7334 9.552C75.4214 9.552 75.1494 9.6 74.9174 9.696C74.6934 9.792 74.5054 9.928 74.3534 10.104C74.2014 10.28 74.0854 10.488 74.0054 10.728C73.9334 10.96 73.8974 11.216 73.8974 11.496V15H72.8774V8.796ZM80.2893 11.952C80.2893 12.24 80.3253 12.524 80.3973 12.804C80.4773 13.076 80.5933 13.32 80.7453 13.536C80.9053 13.752 81.1053 13.924 81.3453 14.052C81.5933 14.18 81.8813 14.244 82.2093 14.244C82.5533 14.244 82.8453 14.176 83.0853 14.04C83.3253 13.904 83.5213 13.728 83.6733 13.512C83.8253 13.288 83.9333 13.036 83.9973 12.756C84.0693 12.476 84.1053 12.192 84.1053 11.904C84.1053 11.6 84.0693 11.308 83.9973 11.028C83.9253 10.74 83.8093 10.488 83.6493 10.272C83.4973 10.056 83.2973 9.884 83.0493 9.756C82.8013 9.62 82.5013 9.552 82.1493 9.552C81.8053 9.552 81.5133 9.62 81.2733 9.756C81.0333 9.892 80.8413 10.072 80.6973 10.296C80.5533 10.52 80.4493 10.776 80.3853 11.064C80.3213 11.352 80.2893 11.648 80.2893 11.952ZM85.0893 15H84.0693V14.16H84.0453C83.8773 14.504 83.6133 14.752 83.2533 14.904C82.8933 15.056 82.4973 15.132 82.0653 15.132C81.5853 15.132 81.1653 15.044 80.8053 14.868C80.4533 14.692 80.1573 14.456 79.9173 14.16C79.6853 13.864 79.5093 13.52 79.3893 13.128C79.2693 12.736 79.2093 12.32 79.2093 11.88C79.2093 11.44 79.2653 11.024 79.3773 10.632C79.4973 10.24 79.6733 9.9 79.9053 9.612C80.1453 9.316 80.4413 9.084 80.7933 8.916C81.1533 8.74 81.5693 8.652 82.0413 8.652C82.2013 8.652 82.3733 8.668 82.5573 8.7C82.7413 8.732 82.9253 8.788 83.1093 8.868C83.2933 8.94 83.4653 9.04 83.6253 9.168C83.7933 9.288 83.9333 9.44 84.0453 9.624H84.0693V6.432H85.0893V15ZM87.2826 13.044C87.2906 13.268 87.3426 13.46 87.4386 13.62C87.5346 13.772 87.6586 13.896 87.8106 13.992C87.9706 14.08 88.1466 14.144 88.3386 14.184C88.5386 14.224 88.7426 14.244 88.9506 14.244C89.1106 14.244 89.2786 14.232 89.4546 14.208C89.6306 14.184 89.7906 14.14 89.9346 14.076C90.0866 14.012 90.2106 13.92 90.3066 13.8C90.4026 13.672 90.4506 13.512 90.4506 13.32C90.4506 13.056 90.3506 12.856 90.1506 12.72C89.9506 12.584 89.6986 12.476 89.3946 12.396C89.0986 12.308 88.7746 12.232 88.4226 12.168C88.0706 12.096 87.7426 12 87.4386 11.88C87.1426 11.752 86.8946 11.576 86.6946 11.352C86.4946 11.128 86.3946 10.816 86.3946 10.416C86.3946 10.104 86.4626 9.836 86.5986 9.612C86.7426 9.388 86.9226 9.208 87.1386 9.072C87.3626 8.928 87.6106 8.824 87.8826 8.76C88.1626 8.688 88.4386 8.652 88.7106 8.652C89.0626 8.652 89.3866 8.684 89.6826 8.748C89.9786 8.804 90.2386 8.908 90.4626 9.06C90.6946 9.204 90.8786 9.404 91.0146 9.66C91.1506 9.908 91.2306 10.22 91.2546 10.596H90.2346C90.2186 10.396 90.1666 10.232 90.0786 10.104C89.9906 9.968 89.8786 9.86 89.7426 9.78C89.6066 9.7 89.4546 9.644 89.2866 9.612C89.1266 9.572 88.9626 9.552 88.7946 9.552C88.6426 9.552 88.4866 9.564 88.3266 9.588C88.1746 9.612 88.0346 9.656 87.9066 9.72C87.7786 9.776 87.6746 9.856 87.5946 9.96C87.5146 10.056 87.4746 10.184 87.4746 10.344C87.4746 10.52 87.5346 10.668 87.6546 10.788C87.7826 10.9 87.9426 10.996 88.1346 11.076C88.3266 11.148 88.5426 11.212 88.7826 11.268C89.0226 11.316 89.2626 11.368 89.5026 11.424C89.7586 11.48 90.0066 11.548 90.2466 11.628C90.4946 11.708 90.7106 11.816 90.8946 11.952C91.0866 12.08 91.2386 12.244 91.3506 12.444C91.4706 12.644 91.5306 12.892 91.5306 13.188C91.5306 13.564 91.4506 13.876 91.2906 14.124C91.1386 14.372 90.9346 14.572 90.6786 14.724C90.4306 14.876 90.1466 14.98 89.8266 15.036C89.5146 15.1 89.2026 15.132 88.8906 15.132C88.5466 15.132 88.2186 15.096 87.9066 15.024C87.5946 14.952 87.3186 14.836 87.0786 14.676C86.8386 14.508 86.6466 14.292 86.5026 14.028C86.3586 13.756 86.2786 13.428 86.2626 13.044H87.2826Z" fill="black"/>
</svg>
